<svg width="32" height="32" viewBox="0 0 32 32" fill="none" xmlns="http://www.w3.org/2000/svg">
<circle cx="16" cy="16.0002" r="16" fill="#FFD93B"/>
<path fill-rule="evenodd" clip-rule="evenodd" d="M25.793 20.9854C24.1411 24.9318 20.2812 27.5005 16.0029 27.5005C11.7247 27.5005 7.86481 24.9318 6.21295 20.9854C6.05701 20.6266 6.09875 20.2125 6.32324 19.8922C6.54767 19.5718 6.92255 19.3912 7.31293 19.4153C13.0971 19.7822 18.8987 19.7822 24.6829 19.4153C25.0734 19.3921 25.4484 19.5723 25.6743 19.8917C25.9001 20.2112 25.9451 20.6248 25.793 20.9854Z" fill="#3E4347"/>
<path fill-rule="evenodd" clip-rule="evenodd" d="M31.5729 16.0002C31.5762 22.6046 27.4123 28.4933 21.1838 30.692C14.9554 32.8907 8.01746 30.9211 3.87335 25.7777C10.0688 30.7758 19.0361 30.2974 24.6647 24.6686C30.2932 19.0398 30.7712 10.0725 25.7729 3.8772C29.4421 6.83154 31.575 11.2894 31.573 16.0002H31.5729Z" fill="#F4C534"/>
<ellipse cx="9.57999" cy="11.7132" rx="5.655" ry="5.66" fill="white"/>
<path fill-rule="evenodd" clip-rule="evenodd" d="M13.629 11.3542C13.6311 12.5142 12.9336 13.5612 11.8622 14.0061C10.7908 14.451 9.55688 14.2062 8.73657 13.386C7.9162 12.5657 7.67126 11.3318 8.11609 10.2603C8.56091 9.18884 9.60779 8.49133 10.7679 8.49329C11.5271 8.49194 12.2556 8.79285 12.7925 9.32971C13.3293 9.86658 13.6303 10.5951 13.629 11.3542Z" fill="#3E4347"/>
<path fill-rule="evenodd" clip-rule="evenodd" d="M12.413 10.8102C12.218 11.0103 11.813 10.9172 11.508 10.6102C11.203 10.3032 11.108 9.91016 11.308 9.7052C11.508 9.50024 11.908 9.60522 12.213 9.90515C12.518 10.2052 12.617 10.6152 12.413 10.8102Z" fill="white"/>
<ellipse cx="22.42" cy="11.7132" rx="5.655" ry="5.66" fill="white"/>
<path fill-rule="evenodd" clip-rule="evenodd" d="M18.0911 11.3542C18.089 12.5142 18.7864 13.5612 19.8578 14.0061C20.9292 14.451 22.1631 14.2062 22.9835 13.386C23.8038 12.5657 24.0488 11.3318 23.604 10.2603C23.1591 9.18884 22.1123 8.49133 20.9521 8.49329C20.193 8.49194 19.4645 8.79285 18.9276 9.32971C18.3907 9.86658 18.0897 10.5951 18.0911 11.3542Z" fill="#3E4347"/>
<path fill-rule="evenodd" clip-rule="evenodd" d="M19.307 10.8102C19.502 11.0103 19.907 10.9172 20.212 10.6102C20.517 10.3032 20.612 9.91016 20.412 9.7052C20.212 9.50024 19.812 9.60522 19.507 9.90515C19.202 10.2052 19.099 10.6152 19.307 10.8102Z" fill="white"/>
<path fill-rule="evenodd" clip-rule="evenodd" d="M7.31299 19.4163C7.24597 19.415 7.17908 19.4202 7.11298 19.4313C8.91998 21.8783 12.213 22.0133 15.996 22.0133C19.779 22.0133 23.072 21.8783 24.879 19.4313C24.8129 19.4204 24.746 19.4153 24.679 19.4163C18.8961 19.783 13.0957 19.783 7.31281 19.4163H7.31299Z" fill="white"/>
<path fill-rule="evenodd" clip-rule="evenodd" d="M15.998 27.5012C17.5624 27.5027 19.1076 27.1567 20.522 26.4883C20.4661 25.3923 20.0115 24.3545 19.244 23.5703C18.6375 22.9619 17.7358 22.7555 16.925 23.0393C16.1607 23.3049 15.3572 23.4402 14.548 23.4392C13.0789 23.448 11.8215 24.4957 11.548 25.9392C11.519 26.1243 11.502 26.3109 11.497 26.4982C12.9052 27.1598 14.4421 27.5023 15.998 27.5012Z" fill="#E24B4B"/>
</svg>
