<svg width="926" height="338" viewBox="0 0 926 338" fill="none" xmlns="http://www.w3.org/2000/svg">
<path fill-rule="evenodd" clip-rule="evenodd" d="M787 338H1.52588e-05V174C-0.00405884 162.242 1.17891 150.494 3.53098 138.953C8.08768 116.689 16.9854 95.5405 29.716 76.7153C48.6017 48.7412 75.1937 26.8433 106.271 13.6743C116.797 9.2251 127.738 5.82886 138.933 3.53516C150.474 1.18188 162.222 -0.00244141 174 0.000244141H787V338Z" fill="#AFAAC1"/>
<path fill-rule="evenodd" clip-rule="evenodd" d="M788 338H16V174C15.9947 163.211 17.0812 152.407 19.2429 141.795C23.4321 121.314 31.6156 101.86 43.326 84.5432C60.6927 58.8186 85.147 38.6824 113.726 26.5742C123.405 22.4832 133.465 19.3601 143.759 17.2512C154.37 15.0876 165.171 13.9983 176 14.0002H788V338Z" fill="black"/>
<path fill-rule="evenodd" clip-rule="evenodd" d="M787 338H77V168C76.9697 148.873 82.6825 130.175 93.3987 114.328C103.817 98.8936 118.487 86.811 135.632 79.5442C147.454 74.541 160.163 71.9753 173 72.0002H787V338Z" fill="#1E1E1E"/>
<path fill-rule="evenodd" clip-rule="evenodd" d="M767.8 133H334C306.386 133 284 110.615 284 83.0002C284 55.386 306.386 33.0002 334 33.0002H767.8C774.39 32.9885 780.917 34.2874 787 36.8213V129.179C780.917 131.713 774.39 133.012 767.8 133H767.8Z" fill="black"/>
<path fill-rule="evenodd" clip-rule="evenodd" d="M496 86.0002C496 83.515 496.879 81.3936 498.636 79.6363C500.393 77.8789 502.515 77.0002 505 77.0002H602C604.485 77.0002 606.607 77.8789 608.364 79.6363C610.121 81.3936 611 83.515 611 86.0002C611 88.4855 610.121 90.6068 608.364 92.3642C606.607 94.1216 604.485 95.0002 602 95.0002H505C502.515 95.0002 500.393 94.1216 498.636 92.3642C496.879 90.6068 496 88.4855 496 86.0002Z" fill="#2B2B29"/>
<circle cx="657" cy="86.0002" r="17" fill="#171717"/>
<circle cx="657" cy="86.0002" r="16" stroke="#2B2B29" stroke-width="2"/>
<circle cx="657" cy="86.0002" r="6" fill="#232A5E"/>
<path fill-rule="evenodd" clip-rule="evenodd" d="M781 303H125C116.163 303 109 295.837 109 287V245C109 236.164 116.163 229 125 229H781C783.426 228.993 785.82 229.543 788 230.608V301.391C785.821 302.456 783.426 303.007 781 303Z" fill="#323234"/>
<path d="M605.528 275.061L610.928 259.509H613.133L605.237 281.145L604.827 282.102C603.813 284.346 602.247 285.469 600.127 285.469C599.638 285.469 599.113 285.389 598.555 285.229L598.538 283.537L599.598 283.64C600.6 283.64 601.409 283.389 602.024 282.888C602.651 282.398 603.181 281.549 603.614 280.342L604.52 277.846L597.547 259.509H599.786L605.528 275.061ZM614.91 268.481C614.91 266.704 615.252 265.103 615.936 263.679C616.631 262.255 617.605 261.15 618.858 260.364C620.123 259.566 621.552 259.167 623.147 259.167C625.608 259.167 627.602 260.033 629.129 261.765C630.656 263.485 631.419 265.77 631.419 268.618V269.045C631.419 270.834 631.071 272.446 630.376 273.882C629.693 275.306 628.724 276.405 627.471 277.18C626.218 277.955 624.788 278.342 623.182 278.342C620.732 278.342 618.738 277.482 617.2 275.761C615.674 274.03 614.91 271.74 614.91 268.891V268.481ZM616.961 269.045C616.961 271.255 617.531 273.073 618.67 274.497C619.821 275.91 621.325 276.616 623.182 276.616C625.027 276.616 626.52 275.91 627.659 274.497C628.81 273.073 629.385 271.198 629.385 268.874V268.481C629.385 267.068 629.123 265.775 628.599 264.602C628.075 263.428 627.34 262.523 626.395 261.885C625.449 261.235 624.367 260.91 623.147 260.91C621.325 260.91 619.838 261.628 618.687 263.064C617.536 264.488 616.961 266.356 616.961 268.669V269.045ZM647.552 275.659C646.321 277.448 644.356 278.342 641.656 278.342C639.685 278.342 638.187 277.772 637.161 276.633C636.136 275.482 635.612 273.785 635.589 271.54V259.509H637.623V271.284C637.623 274.804 639.047 276.565 641.895 276.565C644.857 276.565 646.731 275.34 647.518 272.89V259.509H649.568V278H647.586L647.552 275.659ZM663.445 261.252C663.012 261.172 662.551 261.133 662.061 261.133C660.785 261.133 659.703 261.491 658.814 262.209C657.937 262.916 657.31 263.947 656.934 265.302V278H654.9V259.509H656.9L656.934 262.448C658.016 260.261 659.754 259.167 662.146 259.167C662.716 259.167 663.166 259.241 663.497 259.389L663.445 261.252ZM668.641 259.509L668.709 262.671C669.404 261.531 670.27 260.665 671.307 260.073C672.343 259.469 673.488 259.167 674.742 259.167C676.724 259.167 678.2 259.726 679.168 260.842C680.136 261.959 680.626 263.633 680.638 265.866V278H678.604V265.849C678.593 264.197 678.239 262.967 677.544 262.158C676.861 261.349 675.761 260.945 674.246 260.945C672.981 260.945 671.859 261.343 670.879 262.141C669.911 262.927 669.193 263.992 668.726 265.337V278H666.692V259.509H668.641ZM697.608 278C697.403 277.419 697.272 276.559 697.215 275.42C696.497 276.354 695.58 277.077 694.463 277.59C693.358 278.091 692.185 278.342 690.943 278.342C689.166 278.342 687.724 277.846 686.619 276.855C685.525 275.864 684.979 274.611 684.979 273.095C684.979 271.295 685.725 269.871 687.217 268.823C688.721 267.775 690.812 267.251 693.489 267.251H697.198V265.149C697.198 263.827 696.788 262.79 695.967 262.038C695.158 261.275 693.973 260.893 692.413 260.893C690.988 260.893 689.809 261.258 688.875 261.987C687.941 262.716 687.474 263.594 687.474 264.619L685.423 264.602C685.423 263.132 686.106 261.862 687.474 260.791C688.841 259.708 690.521 259.167 692.515 259.167C694.577 259.167 696.201 259.686 697.386 260.722C698.582 261.748 699.197 263.183 699.231 265.029V273.779C699.231 275.568 699.419 276.906 699.795 277.795V278H697.608ZM691.182 276.531C692.549 276.531 693.768 276.2 694.839 275.539C695.922 274.878 696.708 273.996 697.198 272.89V268.823H693.541C691.501 268.846 689.906 269.222 688.755 269.951C687.605 270.669 687.029 271.66 687.029 272.925C687.029 273.961 687.411 274.822 688.174 275.505C688.949 276.189 689.952 276.531 691.182 276.531ZM706.563 259.509L706.631 262.517C707.315 261.4 708.169 260.563 709.195 260.005C710.22 259.446 711.36 259.167 712.613 259.167C715.529 259.167 717.381 260.364 718.167 262.756C718.828 261.605 719.711 260.722 720.816 260.107C721.921 259.481 723.14 259.167 724.473 259.167C728.438 259.167 730.46 261.332 730.54 265.661V278H728.489V265.815C728.478 264.163 728.119 262.938 727.413 262.141C726.718 261.343 725.578 260.945 723.995 260.945C722.525 260.967 721.283 261.446 720.269 262.38C719.255 263.303 718.691 264.431 718.577 265.764V278H716.526V265.661C716.515 264.078 716.139 262.899 715.398 262.124C714.669 261.338 713.541 260.945 712.015 260.945C710.727 260.945 709.622 261.315 708.699 262.055C707.776 262.785 707.093 263.873 706.648 265.32V278H704.598V259.509H706.563ZM742.896 278.342C741.324 278.342 739.9 277.955 738.624 277.18C737.359 276.405 736.373 275.329 735.667 273.95C734.961 272.56 734.607 271.005 734.607 269.284V268.55C734.607 266.772 734.949 265.171 735.633 263.747C736.328 262.323 737.291 261.207 738.521 260.398C739.751 259.577 741.084 259.167 742.52 259.167C744.764 259.167 746.542 259.936 747.852 261.474C749.174 263.001 749.834 265.092 749.834 267.746V268.891H736.641V269.284C736.641 271.381 737.239 273.13 738.436 274.531C739.643 275.921 741.159 276.616 742.981 276.616C744.075 276.616 745.038 276.417 745.87 276.018C746.713 275.619 747.476 274.981 748.16 274.104L749.441 275.078C747.938 277.254 745.756 278.342 742.896 278.342ZM742.52 260.91C740.982 260.91 739.683 261.474 738.624 262.602C737.575 263.73 736.937 265.246 736.709 267.148H747.801V266.926C747.744 265.149 747.237 263.702 746.28 262.585C745.323 261.469 744.069 260.91 742.52 260.91ZM753.628 276.77C753.628 276.371 753.754 276.035 754.004 275.761C754.266 275.477 754.625 275.334 755.081 275.334C755.537 275.334 755.896 275.477 756.158 275.761C756.42 276.035 756.551 276.371 756.551 276.77C756.551 277.169 756.42 277.499 756.158 277.761C755.896 278.012 755.537 278.137 755.081 278.137C754.625 278.137 754.266 278.012 754.004 277.761C753.754 277.499 753.628 277.169 753.628 276.77ZM766.617 273.745L766.924 275.334L767.334 273.659L771.778 259.509H773.521L777.913 273.54L778.392 275.488L778.785 273.694L782.579 259.509H784.698L779.314 278H777.571L772.82 263.337L772.598 262.329L772.376 263.354L767.71 278H765.967L760.601 259.509H762.703L766.617 273.745ZM800.25 278C800.044 277.419 799.913 276.559 799.856 275.42C799.139 276.354 798.222 277.077 797.105 277.59C796 278.091 794.826 278.342 793.584 278.342C791.807 278.342 790.366 277.846 789.261 276.855C788.167 275.864 787.62 274.611 787.62 273.095C787.62 271.295 788.366 269.871 789.859 268.823C791.363 267.775 793.453 267.251 796.131 267.251H799.839V265.149C799.839 263.827 799.429 262.79 798.609 262.038C797.8 261.275 796.615 260.893 795.054 260.893C793.63 260.893 792.451 261.258 791.517 261.987C790.582 262.716 790.115 263.594 790.115 264.619L788.064 264.602C788.064 263.132 788.748 261.862 790.115 260.791C791.482 259.708 793.163 259.167 795.157 259.167C797.219 259.167 798.842 259.686 800.027 260.722C801.224 261.748 801.839 263.183 801.873 265.029V273.779C801.873 275.568 802.061 276.906 802.437 277.795V278H800.25ZM793.824 276.531C795.191 276.531 796.41 276.2 797.481 275.539C798.563 274.878 799.349 273.996 799.839 272.89V268.823H796.182C794.143 268.846 792.548 269.222 791.397 269.951C790.246 270.669 789.671 271.66 789.671 272.925C789.671 273.961 790.053 274.822 790.816 275.505C791.591 276.189 792.593 276.531 793.824 276.531ZM812.828 275.18L818.45 259.509H820.552L813.648 278H811.99L805.052 259.509H807.154L812.828 275.18ZM826.209 278H824.158V259.509H826.209V278ZM823.799 254.16C823.799 253.773 823.925 253.448 824.175 253.186C824.426 252.912 824.768 252.776 825.201 252.776C825.634 252.776 825.975 252.912 826.226 253.186C826.488 253.448 826.619 253.773 826.619 254.16C826.619 254.547 826.488 254.872 826.226 255.134C825.975 255.396 825.634 255.527 825.201 255.527C824.768 255.527 824.426 255.396 824.175 255.134C823.925 254.872 823.799 254.547 823.799 254.16ZM843.675 275.659C842.444 277.448 840.479 278.342 837.779 278.342C835.808 278.342 834.31 277.772 833.284 276.633C832.259 275.482 831.735 273.785 831.712 271.54V259.509H833.746V271.284C833.746 274.804 835.17 276.565 838.018 276.565C840.98 276.565 842.854 275.34 843.641 272.89V259.509H845.691V278H843.709L843.675 275.659ZM852.886 259.509L852.955 262.517C853.638 261.4 854.493 260.563 855.518 260.005C856.543 259.446 857.683 259.167 858.936 259.167C861.853 259.167 863.704 260.364 864.49 262.756C865.151 261.605 866.034 260.722 867.139 260.107C868.244 259.481 869.463 259.167 870.796 259.167C874.761 259.167 876.784 261.332 876.863 265.661V278H874.812V265.815C874.801 264.163 874.442 262.938 873.736 262.141C873.041 261.343 871.902 260.945 870.318 260.945C868.848 260.967 867.606 261.446 866.592 262.38C865.578 263.303 865.014 264.431 864.9 265.764V278H862.85V265.661C862.838 264.078 862.462 262.899 861.722 262.124C860.993 261.338 859.865 260.945 858.338 260.945C857.05 260.945 855.945 261.315 855.022 262.055C854.1 262.785 853.416 263.873 852.972 265.32V278H850.921V259.509H852.886ZM881.871 276.77C881.871 276.371 881.996 276.035 882.247 275.761C882.509 275.477 882.868 275.334 883.323 275.334C883.779 275.334 884.138 275.477 884.4 275.761C884.662 276.035 884.793 276.371 884.793 276.77C884.793 277.169 884.662 277.499 884.4 277.761C884.138 278.012 883.779 278.137 883.323 278.137C882.868 278.137 882.509 278.012 882.247 277.761C881.996 277.499 881.871 277.169 881.871 276.77ZM897.269 276.616C898.693 276.616 899.883 276.217 900.84 275.42C901.809 274.611 902.333 273.568 902.413 272.292H904.378C904.321 273.42 903.968 274.451 903.318 275.385C902.669 276.308 901.803 277.032 900.721 277.556C899.65 278.08 898.499 278.342 897.269 278.342C894.842 278.342 892.916 277.499 891.492 275.813C890.079 274.127 889.373 271.859 889.373 269.011V268.396C889.373 266.573 889.692 264.961 890.33 263.559C890.968 262.158 891.88 261.076 893.064 260.312C894.261 259.549 895.656 259.167 897.251 259.167C899.279 259.167 900.949 259.771 902.259 260.979C903.58 262.186 904.287 263.776 904.378 265.747H902.413C902.321 264.3 901.797 263.132 900.84 262.243C899.895 261.355 898.698 260.91 897.251 260.91C895.406 260.91 893.97 261.577 892.945 262.91C891.931 264.243 891.424 266.111 891.424 268.515V269.114C891.424 271.472 891.931 273.312 892.945 274.634C893.97 275.955 895.411 276.616 897.269 276.616ZM907.352 268.481C907.352 266.704 907.693 265.103 908.377 263.679C909.072 262.255 910.046 261.15 911.299 260.364C912.564 259.566 913.994 259.167 915.589 259.167C918.05 259.167 920.044 260.033 921.57 261.765C923.097 263.485 923.86 265.77 923.86 268.618V269.045C923.86 270.834 923.513 272.446 922.818 273.882C922.134 275.306 921.166 276.405 919.913 277.18C918.659 277.955 917.229 278.342 915.623 278.342C913.174 278.342 911.18 277.482 909.642 275.761C908.115 274.03 907.352 271.74 907.352 268.891V268.481ZM909.402 269.045C909.402 271.255 909.972 273.073 911.111 274.497C912.262 275.91 913.766 276.616 915.623 276.616C917.469 276.616 918.961 275.91 920.101 274.497C921.251 273.073 921.827 271.198 921.827 268.874V268.481C921.827 267.068 921.565 265.775 921.041 264.602C920.516 263.428 919.782 262.523 918.836 261.885C917.89 261.235 916.808 260.91 915.589 260.91C913.766 260.91 912.279 261.628 911.128 263.064C909.978 264.488 909.402 266.356 909.402 268.669V269.045Z" fill="#84E575"/>
<path d="M157.877 272.362H150.431L148.759 277H146.342L153.129 259.227H155.18L161.979 277H159.574L157.877 272.362ZM151.139 270.433H157.182L154.154 262.12L151.139 270.433ZM174.186 272.362H166.74L165.067 277H162.65L169.438 259.227H171.488L178.288 277H175.883L174.186 272.362ZM167.448 270.433H173.49L170.463 262.12L167.448 270.433Z" fill="white"/>
<path d="M197.353 133.475C196.249 134.559 194.96 135.101 193.485 135.101C191.601 135.101 190.092 134.456 188.959 133.167C187.826 131.868 187.26 130.12 187.26 127.923C187.26 126.527 187.562 125.247 188.168 124.085C188.783 122.913 189.638 122.005 190.731 121.361C191.825 120.706 193.056 120.379 194.423 120.379C195.829 120.379 197.079 120.731 198.173 121.434C199.267 122.137 200.116 123.148 200.722 124.466C201.327 125.784 201.635 127.293 201.645 128.992V130.56C201.645 134.115 200.761 136.907 198.993 138.939C197.226 140.97 194.721 142.054 191.479 142.191L190.438 142.205V138.675L191.376 138.66C195.058 138.494 197.05 136.766 197.353 133.475ZM194.525 131.864C195.209 131.864 195.795 131.688 196.283 131.336C196.781 130.985 197.157 130.56 197.411 130.062V128.319C197.411 126.883 197.138 125.77 196.591 124.979C196.044 124.188 195.312 123.792 194.394 123.792C193.544 123.792 192.846 124.183 192.299 124.964C191.752 125.736 191.479 126.707 191.479 127.879C191.479 129.041 191.742 129.998 192.27 130.75C192.807 131.492 193.559 131.864 194.525 131.864ZM205.058 139.92C205.058 139.246 205.282 138.699 205.731 138.28C206.19 137.86 206.762 137.65 207.445 137.65C208.139 137.65 208.71 137.86 209.159 138.28C209.618 138.699 209.848 139.246 209.848 139.92C209.848 140.584 209.623 141.126 209.174 141.546C208.725 141.956 208.148 142.161 207.445 142.161C206.752 142.161 206.181 141.956 205.731 141.546C205.282 141.126 205.058 140.584 205.058 139.92ZM205.058 127.923C205.058 127.249 205.282 126.702 205.731 126.282C206.19 125.863 206.762 125.653 207.445 125.653C208.139 125.653 208.71 125.863 209.159 126.282C209.618 126.702 209.848 127.249 209.848 127.923C209.848 128.587 209.623 129.129 209.174 129.549C208.725 129.959 208.148 130.164 207.445 130.164C206.752 130.164 206.181 129.959 205.731 129.549C205.282 129.129 205.058 128.587 205.058 127.923ZM225.668 133.973H228.085V137.386H225.668V142H221.435V137.386H212.689L212.499 134.72L221.391 120.672H225.668V133.973ZM216.718 133.973H221.435V126.444L221.156 126.927L216.718 133.973ZM240.653 142H236.42V125.682L231.366 127.249V123.807L240.199 120.643H240.653V142Z" fill="white"/>
<path fill-rule="evenodd" clip-rule="evenodd" d="M416.559 262.829V260.029C416.56 257.328 415.12 254.832 412.781 253.482C410.442 252.131 407.56 252.131 405.222 253.482C402.883 254.833 401.443 257.329 401.444 260.03V262.829H398.959V269.488C398.959 275.034 403.454 279.529 409 279.529C414.545 279.529 419.041 275.034 419.041 269.488V262.829H416.559ZM409.794 272.229V274.701H408.207V272.231C406.811 271.836 405.92 270.471 406.12 269.034C406.32 267.597 407.549 266.527 409 266.527C410.45 266.527 411.679 267.597 411.879 269.034C412.078 270.471 411.188 271.836 409.792 272.231L409.794 272.229ZM414.973 262.829H403.028V260.029C403.028 256.731 405.702 254.057 409 254.057C412.298 254.057 414.972 256.731 414.972 260.029L414.973 262.829Z" fill="#80E770"/>
</svg>
